<svg width="267" height="137" viewBox="0 0 267 137" fill="none" xmlns="http://www.w3.org/2000/svg">
<path d="M157.99 25.6229H140.817C140.871 27.1248 141.503 28.5477 142.582 29.5941C143.631 30.5663 145.018 31.0904 146.447 31.0547C148.654 31.0547 150.223 30.1075 151.155 28.213H157.567C156.909 30.4476 155.539 32.4061 153.666 33.7904C151.742 35.2613 149.382 35.9967 146.584 35.9967C144.459 36.031 142.362 35.5109 140.499 34.4876C138.715 33.4943 137.257 32.0064 136.299 30.2031C135.265 28.2412 134.747 26.0486 134.794 23.8314C134.755 21.6081 135.272 19.4102 136.299 17.4377C137.244 15.6513 138.688 14.1781 140.455 13.1973C142.333 12.2299 144.414 11.7218 146.526 11.7149C148.639 11.708 150.723 12.2025 152.607 13.1576C154.347 14.092 155.776 15.5135 156.72 17.248C157.721 19.1175 158.225 21.2126 158.185 23.3328C158.184 24.1003 158.119 24.8663 157.99 25.6229ZM152.011 21.6517C152.025 20.956 151.883 20.2661 151.597 19.6319C151.311 18.9977 150.887 18.4351 150.357 17.9849C149.259 17.0541 147.855 16.5622 146.416 16.6038C145.057 16.5598 143.731 17.0328 142.706 17.9275C141.662 18.8958 141.005 20.2095 140.857 21.6252L152.011 21.6517Z" fill="#231F20"/>
<path d="M163.656 8.68767C165.16 6.00808 167.374 3.79557 170.054 2.29397C172.83 0.748363 175.963 -0.0413275 179.14 0.0038926C182.808 -0.0726426 186.411 0.981048 189.461 3.02203C192.403 5.03207 194.579 7.97701 195.638 11.3793H187.546C186.83 9.80079 185.643 8.48277 184.148 7.60661C182.608 6.74447 180.865 6.30883 179.1 6.34464C177.182 6.3117 175.292 6.80787 173.637 7.7787C172.034 8.74714 170.742 10.1543 169.913 11.8338C168.991 13.7457 168.537 15.8496 168.59 17.9715C168.543 20.086 168.996 22.1815 169.913 24.0873C170.735 25.7773 172.028 27.1933 173.637 28.1644C175.291 29.1374 177.182 29.6337 179.1 29.5985C180.87 29.6365 182.618 29.1943 184.157 28.3188C185.651 27.4274 186.837 26.1001 187.554 24.5153H195.66C194.613 27.9305 192.434 30.8874 189.483 32.899C186.541 34.8934 183.092 35.8907 179.135 35.8907C175.958 35.9384 172.825 35.1485 170.05 33.6006C167.376 32.1034 165.165 29.901 163.656 27.2334C162.066 24.4078 161.257 21.2092 161.313 17.9671C161.261 14.7214 162.07 11.5197 163.656 8.68767Z" fill="#231F20"/>
<path d="M205.474 34.4649C203.678 33.4766 202.2 31.9984 201.212 30.2025C200.149 28.2498 199.615 26.0534 199.663 23.8308C199.619 21.606 200.169 19.4098 201.256 17.468C202.283 15.6816 203.788 14.2175 205.602 13.2409C207.501 12.2524 209.61 11.7363 211.751 11.7363C213.892 11.7363 216.001 12.2524 217.9 13.2409C219.719 14.227 221.225 15.7038 222.246 17.5033C223.329 19.4339 223.879 21.6177 223.839 23.8308C223.883 26.0593 223.318 28.2574 222.206 30.1892C221.158 31.9903 219.63 33.4657 217.794 34.4517C215.884 35.4723 213.746 35.9915 211.581 35.9608C209.451 35.9971 207.347 35.4818 205.474 34.4649ZM214.613 30.0083C215.583 29.4629 216.373 28.6454 216.885 27.6565C217.482 26.472 217.774 25.1568 217.732 23.8308C217.732 21.5981 217.144 19.8802 215.967 18.677C215.414 18.0939 214.745 17.6323 214.004 17.3216C213.262 17.0109 212.464 16.8579 211.661 16.8723C210.864 16.8557 210.072 17.0078 209.338 17.3189C208.605 17.6299 207.945 18.0928 207.403 18.677C206.255 19.8772 205.682 21.5952 205.682 23.8308C205.682 26.0665 206.236 27.7874 207.345 28.9934C207.877 29.5798 208.53 30.0446 209.258 30.3561C209.985 30.6675 210.772 30.8183 211.564 30.7982C212.631 30.8046 213.682 30.5323 214.613 30.0083Z" fill="#231F20"/>
<path d="M264.353 14.4072C266.118 16.1722 267 18.6388 267 21.807V35.5916H261.065V22.6144C261.065 20.7788 260.599 19.3727 259.667 18.3961C259.168 17.8986 258.571 17.5111 257.914 17.2588C257.256 17.0064 256.553 16.8948 255.85 16.9312C255.143 16.8964 254.437 17.0086 253.777 17.2608C253.116 17.5129 252.515 17.8995 252.011 18.3961C251.058 19.3727 250.581 20.7788 250.581 22.6144V35.5916H244.655V22.6144C244.655 20.7788 244.189 19.3727 243.257 18.3961C242.758 17.8988 242.161 17.5115 241.503 17.2592C240.846 17.0068 240.143 16.8951 239.44 16.9312C238.726 16.8937 238.013 17.0045 237.345 17.2567C236.676 17.5088 236.068 17.8968 235.557 18.3961C234.607 19.3727 234.133 20.7788 234.136 22.6144V35.5916H228.201V12.0951H234.136V14.9367C234.917 13.9347 235.928 13.1356 237.083 12.6069C238.327 12.0315 239.684 11.7405 241.055 11.7553C242.767 11.7269 244.458 12.129 245.975 12.9246C247.394 13.6796 248.559 14.837 249.324 16.2516C250.108 14.8739 251.262 13.743 252.655 12.9864C254.096 12.1697 255.725 11.7452 257.381 11.7553C260.264 11.7553 262.588 12.6393 264.353 14.4072Z" fill="#231F20"/>
<path d="M136.765 63.4334C137.679 61.573 139.103 60.0107 140.871 58.9287C142.639 57.8467 144.678 57.2895 146.75 57.3221C148.364 57.3181 149.958 57.6817 151.41 58.3855C152.8 59.0258 154.012 59.9969 154.94 61.2139V41.5342H161.369V82.8086H154.944V79.0977C154.124 80.3667 152.984 81.3971 151.639 82.0849C150.112 82.8652 148.416 83.2548 146.702 83.219C144.655 83.2374 142.645 82.671 140.908 81.5863C139.128 80.4693 137.693 78.8788 136.765 76.9929C135.721 74.8702 135.201 72.5276 135.251 70.1624C135.208 67.8304 135.727 65.5223 136.765 63.4334ZM154.084 66.3103C153.523 65.2522 152.676 64.373 151.639 63.7731C150.635 63.1915 149.495 62.887 148.334 62.8906C147.169 62.8793 146.024 63.1875 145.022 63.7819C144.02 64.3762 143.2 65.234 142.651 66.2618C142.009 67.4658 141.689 68.8158 141.724 70.1801C141.692 71.5609 142.011 72.9275 142.651 74.1513C143.215 75.2242 144.06 76.1239 145.096 76.7547C146.072 77.3465 147.192 77.6593 148.334 77.6592C149.495 77.6629 150.635 77.3583 151.639 76.7767C152.675 76.1755 153.522 75.2967 154.084 74.2395C154.679 73.0043 154.988 71.6506 154.988 70.2793C154.988 68.908 154.679 67.5544 154.084 66.3191V66.3103Z" fill="#231F20"/>
<path d="M167.461 63.4341C168.39 61.5676 169.824 59.9991 171.6 58.9069C173.355 57.8466 175.371 57.298 177.42 57.3228C179.126 57.2855 180.814 57.6737 182.331 58.4524C183.655 59.1392 184.807 60.1149 185.703 61.3072V57.7287H192.087V80.2633L187.344 80.528L185.703 79.1425C184.83 80.3735 183.674 81.3755 182.331 82.0636C180.791 82.8642 179.072 83.2619 177.336 83.2197C175.296 83.2398 173.293 82.6731 171.565 81.587C169.796 80.4636 168.372 78.8742 167.448 76.9936C166.405 74.8709 165.889 72.5278 165.943 70.1631C165.9 67.8305 166.42 65.522 167.461 63.4341ZM184.776 66.311C184.216 65.252 183.369 64.3726 182.331 63.7738C181.327 63.1922 180.187 62.8877 179.026 62.8913C177.882 62.8827 176.757 63.1797 175.766 63.7518C174.746 64.3538 173.908 65.2216 173.343 66.2625C172.701 67.4665 172.382 68.8165 172.417 70.1808C172.384 71.5616 172.703 72.9282 173.343 74.152C173.909 75.2252 174.755 76.1249 175.792 76.7554C176.767 77.3473 177.886 77.6601 179.026 77.6599C180.187 77.6636 181.327 77.359 182.331 76.7774C183.368 76.1775 184.215 75.2984 184.776 74.2403C185.371 73.005 185.681 71.6513 185.681 70.28C185.681 68.9087 185.371 67.5551 184.776 66.3198V66.311Z" fill="#231F20"/>
<path d="M198.697 53.6767C198.346 53.3307 198.068 52.9185 197.878 52.464C197.688 52.0095 197.59 51.5218 197.59 51.0292C197.59 50.5366 197.688 50.0489 197.878 49.5945C198.068 49.14 198.346 48.7278 198.697 48.3817C199.461 47.6946 200.453 47.3145 201.481 47.3145C202.509 47.3145 203.501 47.6946 204.265 48.3817C204.616 48.7278 204.894 49.14 205.084 49.5945C205.274 50.0489 205.372 50.5366 205.372 51.0292C205.372 51.5218 205.274 52.0095 205.084 52.464C204.894 52.9185 204.616 53.3307 204.265 53.6767C203.499 54.3611 202.508 54.7395 201.481 54.7395C200.454 54.7395 199.463 54.3611 198.697 53.6767ZM204.605 57.7274V82.808H198.269V57.7274H204.605Z" fill="#231F20"/>
<path d="M217.188 38.9219V82.8085H210.869V38.9219H217.188Z" fill="#231F20"/>
<path d="M247.429 57.7275L231.901 94.6733H225.155L230.586 82.1771L220.539 57.7275H227.634L234.112 75.2495L240.673 57.7275H247.429Z" fill="#231F20"/>
<path d="M192.097 73.6348V76.0616C192.097 76.0616 192.366 78.0428 195.517 77.4119V84.0703C195.517 84.0703 188.32 85.2396 186.069 79.7505C183.819 74.2613 192.097 73.6348 192.097 73.6348Z" fill="#231F20"/>
<path d="M247.601 97.25H134.791V133.009H247.601V97.25Z" fill="#231F20"/>
<path d="M163.255 107.457C164.658 108.896 165.358 110.902 165.355 113.476V124.675H160.532V114.129C160.532 112.611 160.153 111.445 159.394 110.63C158.996 110.218 158.514 109.896 157.982 109.685C157.449 109.474 156.877 109.38 156.305 109.408C155.723 109.377 155.141 109.47 154.597 109.681C154.053 109.892 153.56 110.215 153.15 110.63C152.383 111.446 151.994 112.611 151.994 114.129V124.675H147.158V105.582H151.981V107.96C152.636 107.123 153.482 106.454 154.448 106.01C155.479 105.534 156.603 105.293 157.739 105.304C160.016 105.304 161.855 106.022 163.255 107.457Z" fill="white"/>
<path d="M187.558 116.577H173.597C173.644 117.804 174.164 118.965 175.049 119.816C175.901 120.6 177.025 121.021 178.182 120.99C178.979 121.037 179.772 120.842 180.456 120.429C181.14 120.016 181.683 119.405 182.012 118.678H187.214C186.68 120.494 185.566 122.086 184.042 123.209C182.379 124.42 180.361 125.041 178.305 124.974C176.578 125.001 174.873 124.579 173.359 123.747C171.91 122.948 170.725 121.744 169.948 120.284C169.107 118.693 168.685 116.915 168.721 115.117C168.681 113.307 169.097 111.517 169.93 109.91C170.695 108.456 171.868 107.258 173.306 106.464C174.841 105.638 176.563 105.222 178.305 105.255C180.004 105.227 181.681 105.631 183.181 106.428C184.597 107.188 185.759 108.344 186.526 109.755C187.341 111.275 187.751 112.978 187.717 114.702C187.716 115.33 187.663 115.958 187.558 116.577ZM182.705 113.334C182.717 112.771 182.605 112.211 182.377 111.696C182.148 111.181 181.808 110.724 181.381 110.356C180.488 109.6 179.347 109.201 178.177 109.235C177.062 109.195 175.973 109.581 175.133 110.316C174.284 111.105 173.75 112.176 173.633 113.33L182.705 113.334Z" fill="white"/>
<path d="M217.687 105.581L212.101 124.674H206.903L203.421 111.335L199.94 124.674H194.693L189.076 105.581H193.97L197.35 120.142L201.003 105.581H206.104L209.687 120.089L213.08 105.581H217.687Z" fill="white"/>
<path d="M223.403 124.141C222.163 123.581 221.047 122.902 220.46 121.851C220.328 121.617 219.988 121.167 219.891 120.947L224.127 118.643C224.172 119.007 224.293 119.357 224.48 119.671C224.668 119.986 224.919 120.258 225.217 120.47C225.899 120.971 226.731 121.226 227.577 121.194C228.335 121.239 229.088 121.046 229.731 120.642C229.969 120.492 230.165 120.283 230.301 120.036C230.437 119.789 230.508 119.512 230.507 119.23C230.508 118.929 230.418 118.635 230.249 118.386C230.08 118.137 229.839 117.945 229.559 117.836C228.585 117.406 227.575 117.065 226.541 116.817C225.35 116.546 224.18 116.189 223.041 115.749C222.136 115.381 221.333 114.802 220.698 114.059C220.002 113.185 219.653 112.085 219.719 110.97C219.713 109.933 220.032 108.921 220.632 108.076C221.295 107.156 222.201 106.439 223.249 106.006C224.52 105.476 225.887 105.217 227.264 105.247C229.221 105.188 231.14 105.79 232.714 106.955C233.155 107.29 234.311 108.574 234.404 109.214L230.335 111.557C230.313 111.206 230.217 110.863 230.053 110.552C229.89 110.24 229.663 109.966 229.387 109.748C228.733 109.271 227.936 109.032 227.127 109.073C226.422 109.031 225.72 109.2 225.111 109.558C224.89 109.7 224.709 109.896 224.585 110.128C224.462 110.36 224.399 110.619 224.405 110.882C224.404 111.194 224.495 111.5 224.667 111.76C224.839 112.021 225.084 112.225 225.371 112.347C226.331 112.79 227.336 113.13 228.367 113.362C229.529 113.637 230.671 113.994 231.783 114.43C232.685 114.8 233.484 115.387 234.108 116.137C234.795 117.002 235.154 118.082 235.123 119.186C235.136 120.246 234.817 121.283 234.209 122.151C233.548 123.068 232.641 123.779 231.593 124.203C230.334 124.72 228.982 124.972 227.622 124.944C226.174 124.984 224.735 124.71 223.403 124.141Z" fill="white"/>
<path d="M73.349 110.841C73.349 110.841 88.2632 116.917 96.6425 106.87L115.616 121.047C115.616 121.047 106.685 134.859 89.0972 136.518C71.509 138.177 58.9863 130.256 58.9863 130.256L73.349 110.841Z" fill="#3E55A3"/>
<path d="M7.05415 45.1693C7.05415 45.1693 -1.63845 94.8716 52.9484 115.191L53.8751 115.518L52.0218 121.13C52.0218 121.13 -4.54628 105.316 1.2782 43.166L7.05415 45.1693Z" fill="#3E55A3"/>
<path d="M115.614 18.3084C119.376 18.3084 122.427 15.2581 122.427 11.4955C122.427 7.73285 119.376 4.68262 115.614 4.68262C111.851 4.68262 108.801 7.73285 108.801 11.4955C108.801 15.2581 111.851 18.3084 115.614 18.3084Z" fill="#3E55A3"/>
<path d="M75.5008 84.3316C95.6153 84.3316 111.921 68.0255 111.921 47.9109C111.921 27.7963 95.6153 11.4902 75.5008 11.4902C55.3862 11.4902 39.0801 27.7963 39.0801 47.9109C39.0801 68.0255 55.3862 84.3316 75.5008 84.3316Z" fill="#3E55A3"/>
</svg>
